# xmcd
#
# Track frame offsets:
#	150
#	19117
#	35708
#	55112
#	75206
#	92245
#	112343
#	130638
#	147590
#	168013
#	189201
#
# Disc length: 2971 seconds
#
# Revision: 4294901759
# Processed by: cddbd v1.5.2PL0 Copyright (c) Steve Scherf et al.
# Submitted via: EZCDAudioConverter 8.0.2.1
#
DISCID=890b990b
DTITLE=Various Artist - Xin Lỗi Em, Dấu Yêu Chiều Mưa
DYEAR=2003
DGENRE=Dance Pop
TTITLE0=Vân Quang Long - Có phải em không
TTITLE1=Cẩm Ly - Xin Lỗi em
TTITLE2=Quang Vinh - Tóc thề
TTITLE3=Hồng Ngọc - Dấu Yêu Chiều Mưa
TTITLE4=Nguyễn Phi Hùng - Vũ khúc muôn thuở
TTITLE5=Nhật Tinh Anh - Em mang giấc mơ anh về đâu
TTITLE6=Thanh Thanh - Nửa trái tim
TTITLE7=Vân Quang Long - Cô bé suy tư
TTITLE8=Cẩm Ly - Biết yêu khi nào, Tuổi mộng xứ đông
TTITLE9=Nhất Thiên bảo - Anh giờ dâu?
TTITLE10=Cẩm Ly - LK Phố hoa, Tình yêu mong manh, Bờ bến lạ
EXTD=
EXTT0=
EXTT1=
EXTT2=
EXTT3=
EXTT4=
EXTT5=
EXTT6=
EXTT7=
EXTT8=
EXTT9=
EXTT10=
PLAYORDER=
